<?xml version="1.0" encoding="UTF-8"?>
<svg width="65px" height="23px" viewBox="0 0 65 23" version="1.1" xmlns="http://www.w3.org/2000/svg" xmlns:xlink="http://www.w3.org/1999/xlink">
    <!-- Generator: Sketch 52.5 (67469) - http://www.bohemiancoding.com/sketch -->
    <title>logo</title>
    <desc>Created with Sketch.</desc>
    <g id="logo" stroke="none" stroke-width="1" fill="none" fill-rule="evenodd">
        <g id="logo_text" transform="translate(-36.000000, -193.000000)" fill="#FFFFFF" fill-rule="nonzero">
            <path d="M48.6861093,198.01355 L48.6874605,198.01355 L48.6874605,211.254929 L45.2115984,211.254929 L44.9136674,210.11286 L44.814357,210.11286 C44.3840101,210.543207 43.8874633,210.89079 43.3247019,211.155619 C42.7619404,211.420448 42.215739,211.55286 41.6860812,211.55286 C40.6598692,211.55286 39.766085,211.288035 39.0047019,210.758378 C38.2433188,210.22872 37.6557384,209.475624 37.2419433,208.499067 C36.8281481,207.522511 36.6212536,206.372177 36.6212536,205.048033 C36.6212536,203.74044 36.8612512,202.594245 37.3412536,201.609412 C37.821256,200.62458 38.4502152,199.867346 39.2281501,199.337688 C40.0060851,198.80803 40.8253872,198.543205 41.6860812,198.543205 C42.3150498,198.543205 42.8488376,198.646652 43.2874605,198.85355 C43.6731629,199.035485 44.0492614,199.297409 44.4157645,199.639327 L44.4157645,196.254742 C44.5531669,194.716368 45.9765942,193.947182 48.6860465,193.947182 L48.6861093,193.947182 L48.6861093,198.01355 Z M44.4171157,206.348055 L44.4157645,206.348055 L44.4157645,202.613729 C43.9690827,202.217286 43.4067801,202.019067 42.7288398,202.019067 C42.2322856,202.019067 41.8184966,202.259065 41.4874605,202.739067 C41.1564244,203.21907 40.9909088,203.972166 40.9909088,204.998378 C40.9909088,206.074245 41.1481486,206.856306 41.4626329,207.344584 C41.7771172,207.832863 42.2322851,208.076998 42.8281501,208.076998 C43.1757381,208.076998 43.4736661,208.010792 43.7219433,207.878378 C43.9702204,207.745963 44.2019422,207.514241 44.4171157,207.183205 L44.4171157,206.348055 Z M49.1349344,215.572504 L49.136903,215.571729 C51.0808208,214.805562 52.0399322,213.21756 52.0142373,210.807723 C52.0142975,210.791375 52.0143571,210.774936 52.0143571,210.758378 L52.0640122,198.841136 L56.3343571,198.841136 L56.2847019,210.609412 C56.2847019,212.181834 55.9122918,213.460442 55.1674605,214.445274 C54.4226292,215.430107 53.1895381,215.922516 51.4681502,215.922516 C50.541249,215.922516 49.7633257,215.806655 49.1343571,215.574929 L49.1349344,215.572504 Z M100.328777,211.24201 C97.6193247,211.24201 96.1958974,210.472823 96.058495,208.934449 L96.058495,198.841136 L100.32884,198.841136 L100.32884,211.24201 L100.328777,211.24201 Z M54.2048203,197.301826 C53.5427481,197.301826 52.9965466,197.103207 52.5661997,196.705964 C52.1358527,196.30872 51.9206824,195.795622 51.9206824,195.166653 C51.9206824,194.537685 52.1358527,194.024586 52.5661997,193.627343 C52.9965466,193.2301 53.5427481,193.031481 54.2048203,193.031481 C54.8668926,193.031481 55.4130941,193.2301 55.843441,193.627343 C56.273788,194.024586 56.4889583,194.537685 56.4889583,195.166653 C56.4889583,195.795622 56.273788,196.30872 55.843441,196.705964 C55.4130941,197.103207 54.8668926,197.301826 54.2048203,197.301826 Z M59.2640122,198.841136 L63.5343571,198.841136 L63.5343571,211.254929 L59.2640122,211.254929 L59.2640122,198.841136 Z M61.3991847,197.301826 C60.7371124,197.301826 60.1909109,197.103207 59.760564,196.705964 C59.330217,196.30872 59.1150467,195.795622 59.1150467,195.166653 C59.1150467,194.537685 59.330217,194.024586 59.760564,193.627343 C60.1909109,193.2301 60.7371124,193.031481 61.3991847,193.031481 C62.0612569,193.031481 62.6074584,193.2301 63.0378053,193.627343 C63.4681523,194.024586 63.6833226,194.537685 63.6833226,195.166653 C63.6833226,195.795622 63.4681523,196.30872 63.0378053,196.705964 C62.6074584,197.103207 62.0612569,197.301826 61.3991847,197.301826 Z M66.6626329,198.841136 L70.138495,198.841136 L70.436426,200.330791 L70.5357364,200.330791 C71.1150496,199.784582 71.7191815,199.350103 72.3481502,199.027343 C72.9771188,198.704583 73.6805601,198.543205 74.458495,198.543205 C75.7826396,198.543205 76.7591815,198.985959 77.3881502,199.871481 C78.0171188,200.757003 78.3315985,202.002507 78.3315985,203.608033 L78.3315985,211.254929 L74.0612536,211.254929 L74.0612536,204.15424 C74.0612536,203.392857 73.9660822,202.871482 73.7757364,202.590102 C73.5853906,202.308721 73.2667731,202.168033 72.8198743,202.168033 C72.4557346,202.168033 72.141255,202.238377 71.876426,202.379067 C71.6115971,202.519758 71.2971175,202.763893 70.9329778,203.111481 L70.9329778,211.254929 L66.6626329,211.254929 L66.6626329,198.841136 Z M81.360564,198.841136 L84.8364261,198.841136 L85.1343571,200.330791 L85.2336674,200.330791 C85.8129807,199.784582 86.4171126,199.350103 87.0460812,199.027343 C87.6750499,198.704583 88.3784911,198.543205 89.1564261,198.543205 C90.4805706,198.543205 91.4571126,198.985959 92.0860812,199.871481 C92.7150499,200.757003 93.0295295,202.002507 93.0295295,203.608033 L93.0295295,211.254929 L88.7591847,211.254929 L88.7591847,204.15424 C88.7591847,203.392857 88.6640132,202.871482 88.4736674,202.590102 C88.2833217,202.308721 87.9647041,202.168033 87.5178054,202.168033 C87.1536656,202.168033 86.839186,202.238377 86.5743571,202.379067 C86.3095282,202.519758 85.9950486,202.763893 85.6309088,203.111481 L85.6309088,211.254929 L81.360564,211.254929 L81.360564,198.841136 Z M98.1936674,197.301826 C97.5315952,197.301826 96.9853937,197.103207 96.5550467,196.705964 C96.1246998,196.30872 95.9095295,195.795622 95.9095295,195.166653 C95.9095295,194.537685 96.1246998,194.024586 96.5550467,193.627343 C96.9853937,193.2301 97.5315952,193.031481 98.1936674,193.031481 C98.8557397,193.031481 99.4019411,193.2301 99.8322881,193.627343 C100.262635,194.024586 100.477805,194.537685 100.477805,195.166653 C100.477805,195.795622 100.262635,196.30872 99.8322881,196.705964 C99.4019411,197.103207 98.8557397,197.301826 98.1936674,197.301826 Z" id="logo"></path>
        </g>
    </g>
</svg>