<?xml version="1.0" encoding="UTF-8" standalone="no"?>
<svg width="145px" height="70px" viewBox="0 0 145 70" version="1.1" xmlns="http://www.w3.org/2000/svg" xmlns:xlink="http://www.w3.org/1999/xlink" xmlns:sketch="http://www.bohemiancoding.com/sketch/ns">
    <!-- Generator: Sketch 3.1.1 (8761) - http://www.bohemiancoding.com/sketch -->
    <title>Untitled-1</title>
    <desc>Created with Sketch.</desc>
    <defs>
        <path id="path-1" d="M0,-0.007 L144.96,-0.007 L144.96,69.94 L0,69.94 L0,-0.007 Z"></path>
    </defs>
    <g id="Page-1" stroke="none" stroke-width="1" fill="none" fill-rule="evenodd" sketch:type="MSPage">
        <g id="Untitled-1" sketch:type="MSLayerGroup">
            <mask id="mask-2" sketch:name="Clip 2" fill="white">
                <use xlink:href="#path-1"></use>
            </mask>
            <g id="Clip-2"></g>
            <path d="M135.186,15.578 C131.968,15.578 129.351,12.971 129.351,9.767 C129.351,6.563 131.968,3.956 135.186,3.956 C138.403,3.956 141.02,6.563 141.02,9.767 C141.02,12.971 138.403,15.578 135.186,15.578 L135.186,15.578 Z M82.076,62.853 C78.858,62.853 76.24,60.246 76.24,57.042 C76.24,55.229 77.065,53.555 78.506,52.443 C78.521,52.432 78.539,52.429 78.553,52.418 C78.563,52.41 78.571,52.4 78.581,52.391 C79.588,51.635 80.794,51.231 82.076,51.231 C85.294,51.231 87.912,53.838 87.912,57.042 C87.912,60.246 85.294,62.853 82.076,62.853 L82.076,62.853 Z M52.882,30.625 L52.881,30.625 C52.88,30.624 52.88,30.623 52.879,30.623 C51.494,29.514 50.7,27.864 50.7,26.096 C50.7,22.889 53.317,20.281 56.534,20.281 C59.751,20.281 62.369,22.889 62.369,26.096 C62.369,27.643 61.764,29.099 60.665,30.199 C60.663,30.201 60.661,30.202 60.659,30.204 C59.56,31.302 58.095,31.907 56.535,31.907 C55.188,31.907 53.925,31.464 52.882,30.625 L52.882,30.625 Z M9.813,66.038 C6.595,66.038 3.977,63.429 3.977,60.222 C3.977,57.018 6.595,54.411 9.813,54.411 C13.03,54.411 15.648,57.018 15.648,60.222 C15.648,63.429 13.03,66.038 9.813,66.038 L9.813,66.038 Z M135.186,-0.007 C129.775,-0.007 125.374,4.378 125.374,9.767 C125.374,11.594 125.889,13.3 126.77,14.765 L88.811,49.953 C87.051,48.294 84.684,47.269 82.076,47.269 C80.558,47.269 79.102,47.612 77.777,48.257 L64.575,31.685 C65.721,30.056 66.346,28.124 66.346,26.096 C66.346,20.705 61.944,16.319 56.534,16.319 C51.124,16.319 46.723,20.705 46.723,26.096 C46.723,27.011 46.864,27.903 47.107,28.76 L16.247,52.862 C14.522,51.364 12.275,50.449 9.813,50.449 C4.402,50.449 0,54.834 0,60.222 C0,65.614 4.402,70 9.813,70 C15.223,70 19.625,65.614 19.625,60.222 C19.625,58.715 19.27,57.291 18.655,56.015 L48.987,32.326 C49.403,32.824 49.865,33.291 50.383,33.707 C50.385,33.708 50.386,33.709 50.387,33.71 C50.39,33.712 50.393,33.714 50.395,33.716 C52.126,35.104 54.306,35.869 56.535,35.869 C58.38,35.869 60.141,35.355 61.671,34.414 L74.631,50.682 C73.114,52.436 72.263,54.665 72.263,57.042 C72.263,62.431 76.665,66.815 82.076,66.815 C87.487,66.815 91.889,62.431 91.889,57.042 C91.889,55.691 91.611,54.403 91.111,53.231 L129.457,17.685 C131.071,18.847 133.047,19.54 135.186,19.54 C140.596,19.54 144.997,15.155 144.997,9.767 C144.997,4.378 140.596,-0.007 135.186,-0.007 L135.186,-0.007 Z" id="Fill-1" fill="#FAD32B" sketch:type="MSShapeGroup" mask="url(#mask-2)"></path>
        </g>
    </g>
</svg>