<svg xmlns="http://www.w3.org/2000/svg" xmlns:xlink="http://www.w3.org/1999/xlink" viewBox="0 0 16 16"><defs><style>.a{fill:url(#a);}.b{fill:#fff;}</style><linearGradient id="a" x1="1" x2="0" y2="1" gradientUnits="objectBoundingBox"><stop offset="0" stop-color="#707070"/><stop offset="0.184" stop-color="#707070"/><stop offset="0.816" stop-color="#aaa"/><stop offset="1" stop-color="#aaa"/></linearGradient></defs><g transform="translate(-212 -77)"><path class="a" d="M8,0A8,8,0,1,1,0,8,8,8,0,0,1,8,0Z" transform="translate(228 93) rotate(180)"/><path class="b" d="M2.75-3.5H2.375V-4.625a2.309,2.309,0,0,0-.32-1.187,2.387,2.387,0,0,0-.867-.867A2.309,2.309,0,0,0,0-7a2.309,2.309,0,0,0-1.187.32,2.387,2.387,0,0,0-.867.867,2.309,2.309,0,0,0-.32,1.188V-3.5H-2.75a.723.723,0,0,0-.531.219A.723.723,0,0,0-3.5-2.75v3a.723.723,0,0,0,.219.531A.723.723,0,0,0-2.75,1h5.5A.723.723,0,0,0,3.281.781.723.723,0,0,0,3.5.25v-3a.723.723,0,0,0-.219-.531A.723.723,0,0,0,2.75-3.5Zm-1.625,0h-2.25V-4.625a1.085,1.085,0,0,1,.328-.8A1.085,1.085,0,0,1,0-5.75a1.085,1.085,0,0,1,.8.328,1.085,1.085,0,0,1,.328.8Z" transform="translate(220 87)"/></g></svg>