<svg xmlns="http://www.w3.org/2000/svg" xmlns:xlink="http://www.w3.org/1999/xlink" viewBox="0 0 16 16"><defs><style>.a{fill:url(#a);}.b{fill:#fff;}</style><linearGradient id="a" x1="1" x2="0" y2="1" gradientUnits="objectBoundingBox"><stop offset="0" stop-color="#e19b0f"/><stop offset="0.184" stop-color="#e19b0f"/><stop offset="0.816" stop-color="#fd0"/><stop offset="1" stop-color="#fd0"/></linearGradient></defs><g transform="translate(-123 -77)"><path class="a" d="M8,0A8,8,0,1,1,0,8,8,8,0,0,1,8,0Z" transform="translate(139 93) rotate(180)"/><path class="b" d="M-.51-7.559l-1.143,2.32-2.566.369a.533.533,0,0,0-.36.211.587.587,0,0,0-.123.387.539.539,0,0,0,.167.369l1.863,1.811L-3.111.475a.555.555,0,0,0,.079.4.516.516,0,0,0,.325.237.542.542,0,0,0,.4-.053L0-.141l2.3,1.2a.542.542,0,0,0,.4.053A.516.516,0,0,0,3.032.87a.555.555,0,0,0,.079-.4L2.672-2.092,4.535-3.9A.539.539,0,0,0,4.7-4.271a.587.587,0,0,0-.123-.387.533.533,0,0,0-.36-.211L1.652-5.238.51-7.559A.535.535,0,0,0,.2-7.84a.6.6,0,0,0-.4,0A.535.535,0,0,0-.51-7.559Z" transform="translate(131 88)"/></g></svg>