<svg xmlns="http://www.w3.org/2000/svg" xmlns:xlink="http://www.w3.org/1999/xlink" viewBox="0 0 16 16"><defs><style>.a{fill:url(#a);}.b{fill:#fff;}</style><linearGradient id="a" x1="1" x2="0" y2="1" gradientUnits="objectBoundingBox"><stop offset="0" stop-color="#2a87dd"/><stop offset="0.184" stop-color="#2d8be3"/><stop offset="0.816" stop-color="#3da2ff"/><stop offset="1" stop-color="#3da2ff"/></linearGradient></defs><g transform="translate(-103 -77)"><path class="a" d="M8,0A8,8,0,1,1,0,8,8,8,0,0,1,8,0Z" transform="translate(119 93) rotate(180)"/><path class="b" d="M-1.281-.141-3.891-2.734A.381.381,0,0,1-4-3.016.381.381,0,0,1-3.891-3.3l.578-.562a.348.348,0,0,1,.273-.125.4.4,0,0,1,.289.125L-1-2.109l3.75-3.75a.4.4,0,0,1,.289-.125.348.348,0,0,1,.273.125l.578.563A.381.381,0,0,1,4-5.016a.381.381,0,0,1-.109.281L-.719-.141A.357.357,0,0,1-1-.016.357.357,0,0,1-1.281-.141Z" transform="translate(111 88)"/></g></svg>