<svg xmlns="http://www.w3.org/2000/svg" xmlns:xlink="http://www.w3.org/1999/xlink" viewBox="0 0 16 16"><defs><style>.a{fill:url(#a);}.b{fill:#fff;}</style><linearGradient id="a" x1="1" x2="0" y2="1" gradientUnits="objectBoundingBox"><stop offset="0" stop-color="#c94a4a"/><stop offset="0.184" stop-color="#c94a4a"/><stop offset="0.816" stop-color="#ff5d5d"/><stop offset="1" stop-color="#ff5d5d"/></linearGradient></defs><g transform="translate(-5810 229)"><path class="a" d="M8,0A8,8,0,1,1,0,8,8,8,0,0,1,8,0Z" transform="translate(5826 -213) rotate(180)"/><path class="b" d="M4.271-3.375,6.029-5.133a.526.526,0,0,0,.158-.387.587.587,0,0,0-.158-.4l-.387-.387a.587.587,0,0,0-.4-.158.526.526,0,0,0-.387.158L3.094-4.553,1.336-6.311a.526.526,0,0,0-.387-.158.587.587,0,0,0-.4.158l-.387.387A.587.587,0,0,0,0-5.52a.526.526,0,0,0,.158.387L1.916-3.375.158-1.617A.526.526,0,0,0,0-1.23a.587.587,0,0,0,.158.4l.387.387a.587.587,0,0,0,.4.158.526.526,0,0,0,.387-.158L3.094-2.2,4.852-.439a.526.526,0,0,0,.387.158.587.587,0,0,0,.4-.158l.387-.387a.587.587,0,0,0,.158-.4.526.526,0,0,0-.158-.387Z" transform="translate(5815 -218)"/></g></svg>