<svg xmlns="http://www.w3.org/2000/svg" xmlns:xlink="http://www.w3.org/1999/xlink" viewBox="0 0 16 16"><defs><style>.a{fill:url(#a);}.b{fill:#fff;}</style><linearGradient id="a" x1="1" x2="0" y2="1" gradientUnits="objectBoundingBox"><stop offset="0" stop-color="#373a3c"/><stop offset="0.184" stop-color="#373a3c"/><stop offset="0.816" stop-color="#707070"/><stop offset="1" stop-color="#707070"/></linearGradient></defs><g transform="translate(-143 -77)"><path class="a" d="M8,0A8,8,0,1,1,0,8,8,8,0,0,1,8,0Z" transform="translate(159 93) rotate(180)"/><path class="b" d="M-.3-3.375-2.689-5.766a.407.407,0,0,1-.123-.3.407.407,0,0,1,.123-.3l.4-.387a.407.407,0,0,1,.3-.123.407.407,0,0,1,.3.123L0-5.062,1.688-6.75a.407.407,0,0,1,.3-.123.407.407,0,0,1,.3.123l.4.387a.407.407,0,0,1,.123.3.407.407,0,0,1-.123.3L.3-3.375a.407.407,0,0,1-.3.123A.407.407,0,0,1-.3-3.375ZM.3,0,2.689-2.391a.407.407,0,0,0,.123-.3.407.407,0,0,0-.123-.3l-.4-.387a.407.407,0,0,0-.3-.123.352.352,0,0,0-.281.123L0-1.687-1.687-3.375a.407.407,0,0,0-.3-.123.407.407,0,0,0-.3.123l-.4.387a.407.407,0,0,0-.123.3.407.407,0,0,0,.123.3L-.3,0A.407.407,0,0,0,0,.123.407.407,0,0,0,.3,0Z" transform="translate(151 89)"/></g></svg>