<?xml version="1.0" encoding="UTF-8" standalone="no"?>
<svg width="88px" height="77px" viewBox="0 0 88 77" version="1.1" xmlns="http://www.w3.org/2000/svg" xmlns:xlink="http://www.w3.org/1999/xlink" xmlns:sketch="http://www.bohemiancoding.com/sketch/ns">
    <!-- Generator: Sketch 3.2.2 (9983) - http://www.bohemiancoding.com/sketch -->
    <title>Code Snippet</title>
    <desc>Created with Sketch.</desc>
    <defs></defs>
    <g id="Page-1" stroke="none" stroke-width="1" fill="none" fill-rule="evenodd" sketch:type="MSPage">
        <g id="Code-Snippet" sketch:type="MSLayerGroup" transform="translate(1.000000, 0.000000)" fill="#FFEC28">
            <path d="M51.875925,33.0394167 L38.825925,58.7060833 C38.4453,59.4568333 37.677525,59.8888889 36.8793,59.8888889 C36.55305,59.8888889 36.220275,59.8161667 35.907075,59.6643056 C34.832625,59.1338611 34.397625,57.8505278 34.93485,56.7939167 L47.98485,31.12725 C48.522075,30.0706389 49.827075,29.6407222 50.9037,30.1690278 C51.97815,30.6994722 52.41315,31.9828056 51.875925,33.0394167 L51.875925,33.0394167 Z M30.069375,35.3002222 C29.473425,34.2735556 28.1445,33.9206389 27.1005,34.5045556 L11.8755,43.0601111 C11.199075,43.4408333 10.781475,44.1488056 10.781475,44.9166667 C10.781475,45.6845278 11.199075,46.3925 11.8755,46.7732222 L27.1005,55.3287778 C27.441975,55.5191389 27.8139,55.6111111 28.1793,55.6111111 C28.934025,55.6111111 29.667,55.2239722 30.069375,54.5331111 C30.665325,53.5085833 30.3021,52.2017222 29.260275,51.6156667 L17.3391,44.9166667 L29.260275,38.2176667 C30.3021,37.6316111 30.665325,36.32475 30.069375,35.3002222 L30.069375,35.3002222 Z M74.935275,43.0601111 L59.710275,34.5045556 C58.66845,33.9206389 57.33735,34.2735556 56.7414,35.3002222 C56.147625,36.32475 56.508675,37.6316111 57.5505,38.2176667 L69.471675,44.9166667 L57.5505,51.6156667 C56.508675,52.2017222 56.147625,53.5085833 56.7414,54.5331111 C57.143775,55.2239722 57.87675,55.6111111 58.63365,55.6111111 C58.99905,55.6111111 59.3688,55.5191389 59.710275,55.3287778 L74.935275,46.7732222 C75.6117,46.3925 76.031475,45.6845278 76.031475,44.9166667 C76.031475,44.1488056 75.6117,43.4408333 74.935275,43.0601111 L74.935275,43.0601111 Z M86.9043,6.41666667 L86.9043,70.5833333 C86.9043,74.1210556 83.978925,77 80.3793,77 L6.4293,77 C2.83185,77 -0.0957,74.1210556 -0.0957,70.5833333 L-0.0957,6.41666667 C-0.0957,2.87894444 2.83185,0 6.4293,0 L80.3793,0 C83.978925,0 86.9043,2.87894444 86.9043,6.41666667 L86.9043,6.41666667 Z M4.256475,6.41666667 L4.256475,12.8333333 L82.556475,12.8333333 L82.556475,6.41666667 C82.556475,5.23813889 81.5799,4.27777778 80.3793,4.27777778 L6.4293,4.27777778 C5.230875,4.27777778 4.256475,5.23813889 4.256475,6.41666667 L4.256475,6.41666667 Z M82.556475,70.5833333 L82.556475,17.1111111 L4.256475,17.1111111 L4.256475,70.5833333 C4.256475,71.7618611 5.230875,72.7222222 6.4293,72.7222222 L80.3793,72.7222222 C81.5799,72.7222222 82.556475,71.7618611 82.556475,70.5833333 L82.556475,70.5833333 Z" sketch:type="MSShapeGroup"></path>
        </g>
    </g>
</svg>